<?xml version="1.0" standalone="no"?>
<!DOCTYPE svg PUBLIC "-//W3C//DTD SVG 20010904//EN"
 "http://www.w3.org/TR/2001/REC-SVG-20010904/DTD/svg10.dtd">
<svg version="1.0" xmlns="http://www.w3.org/2000/svg"
 width="256.000000pt" height="256.000000pt" viewBox="0 0 256.000000 256.000000"
 preserveAspectRatio="xMidYMid meet">
<metadata>
Created by potrace 1.14, written by Peter Selinger 2001-2017
</metadata>
<g transform="translate(0.000000,256.000000) scale(0.100000,-0.100000)"
fill="#000000" stroke="none">
<path d="M1075 2545 c-285 -52 -505 -165 -700 -361 -179 -179 -296 -394 -351
-646 -19 -84 -27 -344 -14 -428 18 -116 23 -136 50 -219 103 -314 319 -578
604 -735 51 -28 206 -95 235 -101 9 -2 54 -13 101 -25 65 -17 122 -23 245 -25
174 -4 231 2 373 39 302 79 596 301 757 571 64 106 132 267 151 356 34 161 42
383 17 524 -91 530 -506 949 -1036 1045 -117 21 -331 24 -432 5z"/>
</g>
</svg>
